<svg xmlns="http://www.w3.org/2000/svg" xmlns:xlink="http://www.w3.org/1999/xlink" width="40" zoomAndPan="magnify" viewBox="0 0 30 30.000001" height="40" preserveAspectRatio="xMidYMid meet" version="1.0"><defs><clipPath id="6eef6d19a4"><path d="M 2.242188 0 L 27.648438 0 L 27.648438 29 L 2.242188 29 Z M 2.242188 0 " clip-rule="nonzero"/></clipPath></defs><g clip-path="url(#6eef6d19a4)"><path fill="#000000" d="M 2.558594 28.949219 C 2.296875 28.945312 2.246094 28.867188 2.28125 28.605469 C 2.332031 28.246094 2.386719 27.886719 2.433594 27.527344 C 2.578125 26.390625 3.0625 25.40625 3.761719 24.515625 C 3.816406 24.445312 3.878906 24.375 3.941406 24.3125 C 4.105469 24.144531 4.128906 23.964844 4.015625 23.757812 C 3.785156 23.335938 3.664062 22.875 3.554688 22.410156 C 3.269531 21.210938 3.625 20.164062 4.308594 19.203125 C 4.542969 18.871094 4.8125 18.558594 5.09375 18.265625 C 5.792969 17.527344 6.15625 16.640625 6.289062 15.648438 C 6.355469 15.152344 6.402344 14.65625 6.402344 14.152344 C 6.402344 13.246094 6.417969 12.335938 6.417969 11.429688 C 6.417969 10.5625 6.53125 9.707031 6.640625 8.851562 C 6.691406 8.445312 6.683594 8.03125 6.746094 7.628906 C 6.9375 6.414062 7.226562 5.226562 7.78125 4.117188 C 8.484375 2.726562 9.449219 1.578125 10.832031 0.828125 C 11.492188 0.472656 12.203125 0.25 12.953125 0.152344 C 13.433594 0.0898438 13.902344 0.128906 14.355469 0.289062 C 14.621094 0.386719 14.863281 0.40625 15.140625 0.308594 C 16.027344 0 16.921875 0.0507812 17.804688 0.34375 C 20.136719 1.113281 21.65625 2.730469 22.546875 4.980469 C 22.992188 6.105469 23.21875 7.285156 23.394531 8.480469 C 23.667969 10.308594 23.632812 12.148438 23.671875 13.984375 C 23.691406 14.78125 23.796875 15.570312 23.960938 16.347656 C 24.089844 16.984375 24.375 17.546875 24.824219 18.019531 C 25.199219 18.417969 25.570312 18.816406 25.867188 19.273438 C 26.523438 20.273438 26.757812 21.34375 26.410156 22.515625 C 26.28125 22.953125 26.117188 23.375 25.910156 23.777344 C 25.824219 23.941406 25.84375 24.082031 25.953125 24.222656 C 26.007812 24.292969 26.0625 24.363281 26.121094 24.433594 C 27.015625 25.496094 27.417969 26.757812 27.597656 28.109375 C 27.628906 28.355469 27.628906 28.601562 27.644531 28.851562 C 27.402344 29.03125 27.121094 28.933594 26.859375 28.949219 C 26.542969 28.964844 3.460938 28.953125 2.558594 28.949219 Z M 21.898438 12.902344 C 21.898438 12.726562 21.90625 12.636719 21.898438 12.546875 C 21.855469 12.027344 21.691406 11.8125 21.199219 11.671875 C 20.894531 11.585938 20.582031 11.523438 20.269531 11.472656 C 18.972656 11.253906 17.703125 10.933594 16.480469 10.445312 C 15.230469 9.945312 14.09375 9.257812 13.152344 8.269531 C 12.683594 7.777344 12.234375 7.265625 11.890625 6.671875 C 11.828125 6.558594 11.78125 6.394531 11.617188 6.417969 C 11.460938 6.441406 11.449219 6.613281 11.390625 6.730469 C 11.085938 7.390625 10.832031 8.070312 10.617188 8.765625 C 10.246094 9.976562 9.683594 11.074219 8.714844 11.929688 C 8.5625 12.0625 8.421875 12.21875 8.316406 12.390625 C 7.984375 12.917969 8.140625 13.644531 8.628906 13.960938 C 8.789062 14.0625 8.964844 14.082031 9.144531 14.105469 C 9.320312 14.128906 9.429688 14.238281 9.484375 14.398438 C 9.519531 14.507812 9.542969 14.617188 9.582031 14.726562 C 10.195312 16.386719 11.277344 17.660156 12.792969 18.554688 C 13.519531 18.984375 14.316406 19.269531 15.175781 19.234375 C 16.027344 19.199219 16.816406 18.941406 17.53125 18.460938 C 18.929688 17.523438 19.964844 16.304688 20.460938 14.667969 C 20.558594 14.347656 20.683594 14.121094 21.074219 14.050781 C 21.523438 13.964844 21.832031 13.65625 21.878906 13.15625 C 21.890625 13.042969 21.898438 12.929688 21.898438 12.902344 Z M 12.453125 19.980469 C 12.320312 20.121094 12.304688 20.308594 12.261719 20.484375 C 12.117188 21.0625 11.855469 21.53125 11.246094 21.738281 C 11.015625 21.816406 11.007812 21.964844 11.164062 22.164062 C 11.195312 22.199219 11.226562 22.230469 11.257812 22.265625 C 12.296875 23.472656 13.542969 24.453125 14.777344 25.449219 C 14.796875 25.460938 14.8125 25.476562 14.832031 25.488281 C 14.980469 25.589844 15.128906 25.585938 15.273438 25.488281 C 15.347656 25.4375 15.425781 25.390625 15.496094 25.332031 C 16.652344 24.386719 17.738281 23.355469 18.796875 22.304688 C 18.84375 22.253906 18.894531 22.207031 18.9375 22.15625 C 19.054688 22.015625 19.042969 21.898438 18.875 21.835938 C 18.285156 21.617188 17.996094 21.160156 17.828125 20.585938 C 17.773438 20.394531 17.824219 20.113281 17.644531 20.027344 C 17.410156 19.910156 17.285156 20.230469 17.082031 20.304688 C 17.039062 20.320312 17 20.34375 16.960938 20.359375 C 15.566406 20.976562 14.203125 20.984375 12.878906 20.164062 C 12.746094 20.082031 12.632812 19.957031 12.453125 19.980469 Z M 12.453125 19.980469 " fill-opacity="1" fill-rule="nonzero"/></g></svg>