<svg xmlns="http://www.w3.org/2000/svg" xmlns:xlink="http://www.w3.org/1999/xlink" width="40" zoomAndPan="magnify" viewBox="0 0 30 30.000001" height="40" preserveAspectRatio="xMidYMid meet" version="1.0"><defs><clipPath id="87c933ae72"><path d="M 2.058594 0.00390625 L 27.464844 0.00390625 L 27.464844 29.03125 L 2.058594 29.03125 Z M 2.058594 0.00390625 " clip-rule="nonzero"/></clipPath></defs><g clip-path="url(#87c933ae72)"><path fill="#040404" d="M 13.300781 0.390625 C 12.996094 0.304688 12.65625 0.304688 12.289062 0.398438 C 12.203125 0.417969 12.105469 0.402344 12.003906 0.347656 C 11.976562 0.335938 11.984375 0.300781 12.011719 0.289062 C 12.613281 0.132812 13.15625 0.144531 13.648438 0.324219 C 13.722656 0.355469 13.804688 0.367188 13.886719 0.363281 C 14.273438 0.347656 14.621094 0.386719 14.933594 0.472656 C 14.964844 0.484375 14.992188 0.445312 14.96875 0.417969 C 14.773438 0.164062 13.964844 0.0859375 13.65625 0.078125 C 13.640625 0.0742188 13.628906 0.0664062 13.628906 0.0507812 C 13.628906 0.0390625 13.640625 0.0273438 13.652344 0.0273438 C 14.328125 -0.0390625 15.019531 0.03125 15.730469 0.238281 C 16.019531 0.324219 16.371094 0.488281 16.78125 0.726562 C 17.214844 0.984375 17.703125 1.207031 18.238281 1.390625 C 18.820312 1.589844 19.390625 1.929688 19.695312 2.300781 C 20.203125 2.914062 20.152344 3.558594 20.132812 4.308594 C 20.128906 4.410156 20.164062 4.484375 20.234375 4.53125 C 20.332031 4.597656 20.386719 4.636719 20.386719 4.644531 C 20.441406 4.761719 20.5 4.890625 20.5625 5.027344 C 20.582031 5.066406 20.570312 5.113281 20.539062 5.144531 C 20.523438 5.160156 20.511719 5.171875 20.507812 5.183594 C 20.5 5.210938 20.507812 5.242188 20.527344 5.265625 C 20.75 5.507812 20.847656 5.761719 20.824219 6.027344 C 20.800781 6.257812 20.792969 6.421875 20.804688 6.515625 C 20.832031 6.753906 20.820312 7.046875 20.691406 7.285156 C 20.402344 7.820312 20.699219 8.40625 20.464844 8.945312 C 20.425781 9.03125 20.296875 9.015625 20.285156 8.921875 C 20.277344 8.878906 20.277344 8.816406 20.289062 8.734375 C 20.265625 8.953125 20.214844 9.160156 20.132812 9.355469 C 20.125 9.382812 20.148438 9.410156 20.175781 9.398438 C 20.800781 9.171875 21.035156 9.648438 20.972656 10.160156 C 20.953125 10.300781 20.832031 10.9375 20.605469 12.066406 C 20.488281 12.664062 20.28125 13.441406 19.546875 13.5625 C 19.507812 13.566406 19.480469 13.59375 19.480469 13.632812 C 19.398438 14.597656 19.109375 15.460938 18.609375 16.234375 C 18.578125 16.285156 18.554688 16.347656 18.546875 16.40625 C 18.359375 17.785156 18.347656 19.164062 19.105469 20.359375 C 19.191406 20.496094 19.289062 20.613281 19.398438 20.707031 C 19.433594 20.738281 19.476562 20.761719 19.523438 20.769531 C 19.984375 20.863281 20.296875 20.957031 20.464844 21.050781 C 21 21.347656 21.554688 21.75 22.175781 22.078125 C 22.734375 22.378906 23.503906 22.785156 24.484375 23.296875 C 25.328125 23.734375 26.136719 24.308594 26.488281 25.222656 C 26.652344 25.644531 26.796875 26.136719 26.914062 26.691406 C 27.152344 27.804688 27.335938 28.796875 27.460938 29.660156 C 27.46875 29.710938 27.429688 29.757812 27.378906 29.757812 L 2.121094 29.757812 C 2.085938 29.757812 2.054688 29.722656 2.0625 29.6875 C 2.273438 28.089844 2.441406 26.730469 2.882812 25.25 C 3.164062 24.3125 3.640625 24.058594 4.535156 23.492188 C 5.105469 23.128906 5.519531 22.890625 5.773438 22.769531 C 6.5625 22.40625 7.246094 22.042969 7.824219 21.683594 C 8.585938 21.214844 9.050781 20.921875 9.8125 20.742188 C 9.890625 20.726562 9.957031 20.679688 10.003906 20.617188 C 10.378906 20.085938 10.617188 19.566406 10.710938 18.917969 C 10.8125 18.21875 10.789062 17.417969 10.640625 16.515625 C 10.613281 16.359375 10.511719 16.117188 10.335938 15.792969 C 9.953125 15.097656 9.765625 14.453125 9.625 13.664062 C 9.617188 13.625 9.585938 13.59375 9.546875 13.59375 C 8.660156 13.535156 8.511719 12.667969 8.378906 11.914062 C 8.238281 11.121094 8.121094 10.546875 8.035156 10.1875 C 7.917969 9.710938 8.195312 9.28125 8.742188 9.367188 C 8.773438 9.371094 8.796875 9.339844 8.785156 9.3125 C 8.644531 8.964844 8.554688 8.707031 8.523438 8.539062 C 8.464844 8.230469 8.40625 7.996094 8.351562 7.839844 C 8.167969 7.308594 8.15625 6.824219 8.214844 6.378906 C 8.238281 6.183594 8.242188 6.007812 8.226562 5.851562 C 8.164062 5.238281 8.285156 4.613281 8.667969 4.148438 C 8.6875 4.121094 8.710938 4.101562 8.734375 4.082031 C 8.914062 3.929688 9.027344 3.835938 9.066406 3.800781 C 9.082031 3.785156 9.070312 3.757812 9.046875 3.757812 L 8.453125 3.835938 C 8.441406 3.835938 8.429688 3.828125 8.429688 3.816406 L 8.425781 3.789062 C 8.421875 3.761719 8.441406 3.734375 8.46875 3.730469 C 8.898438 3.632812 9.199219 3.265625 9.390625 2.921875 C 9.578125 2.589844 9.824219 2.375 10.09375 2.238281 C 10.128906 2.222656 10.113281 2.175781 10.078125 2.179688 C 9.605469 2.230469 9.230469 2.445312 8.953125 2.820312 C 8.9375 2.84375 8.90625 2.847656 8.886719 2.832031 L 8.863281 2.816406 C 8.859375 2.808594 8.855469 2.800781 8.859375 2.796875 C 9.1875 2.253906 9.390625 1.855469 10.066406 1.671875 C 10.242188 1.625 10.433594 1.578125 10.648438 1.539062 C 10.785156 1.507812 10.90625 1.4375 10.992188 1.335938 L 11.429688 0.839844 C 11.449219 0.816406 11.429688 0.777344 11.398438 0.78125 C 11.160156 0.808594 10.996094 0.78125 10.90625 0.695312 C 10.878906 0.667969 10.898438 0.621094 10.933594 0.621094 C 11.507812 0.609375 12.058594 0.53125 12.589844 0.386719 C 12.628906 0.375 12.671875 0.371094 12.710938 0.375 L 13.296875 0.410156 C 13.304688 0.410156 13.308594 0.40625 13.308594 0.402344 C 13.308594 0.398438 13.308594 0.390625 13.300781 0.390625 Z M 19.679688 3.25 C 19.804688 2.875 19.367188 2.355469 19.074219 2.183594 C 19.035156 2.160156 18.996094 2.207031 19.023438 2.238281 C 19.296875 2.574219 19.539062 2.816406 19.644531 3.25 C 19.648438 3.265625 19.671875 3.269531 19.679688 3.25 Z M 19.679688 3.25 " fill-opacity="1" fill-rule="nonzero"/></g></svg>