<svg xmlns="http://www.w3.org/2000/svg" xmlns:xlink="http://www.w3.org/1999/xlink" width="40" zoomAndPan="magnify" viewBox="0 0 30 30.000001" height="40" preserveAspectRatio="xMidYMid meet" version="1.0"><defs><clipPath id="80a7e97e88"><path d="M 3.386719 0 L 26.613281 0 L 26.613281 29.03125 L 3.386719 29.03125 Z M 3.386719 0 " clip-rule="nonzero"/></clipPath></defs><g clip-path="url(#80a7e97e88)"><path fill="#000000" d="M 26.609375 27.511719 C 26.609375 19.570312 21.40625 13.136719 15 13.136719 C 8.59375 13.136719 3.390625 19.570312 3.390625 27.511719 C 3.390625 28.75 8.59375 29.757812 15 29.757812 C 21.40625 29.757812 26.609375 28.75 26.609375 27.511719 Z M 15 0 C 18.496094 0 21.328125 2.8125 21.328125 6.285156 C 21.328125 9.757812 18.496094 12.570312 15 12.570312 C 11.503906 12.570312 8.671875 9.757812 8.671875 6.285156 C 8.671875 2.8125 11.503906 0 15 0 Z M 15 0 " fill-opacity="1" fill-rule="evenodd"/></g></svg>